<svg width="22" height="14" viewBox="0 0 22 14" fill="none" xmlns="http://www.w3.org/2000/svg">
<g clip-path="url(#clip0_274_184)">
<path fill-rule="evenodd" clip-rule="evenodd" d="M1.82708 -0.000231214H20.1729C20.6587 -0.000231214 21.1205 0.186394 21.4637 0.518164C21.8069 0.849934 22 1.29639 22 1.76592V12.2338C22 12.7033 21.8069 13.1498 21.4637 13.4816C21.1205 13.8134 20.6587 14 20.1729 14H1.82708C1.34138 14 0.879493 13.8134 0.536294 13.4816C0.193117 13.1498 0 12.7033 0 12.2338V1.76592C0 1.29639 0.193117 0.849934 0.536294 0.518164C0.879493 0.186394 1.34138 -0.000231214 1.82708 -0.000231214ZM20.1729 0.981235H1.82708C1.61119 0.981235 1.40667 1.06477 1.25421 1.21216C1.10175 1.3595 1.01536 1.5572 1.01536 1.76592V12.2338C1.01536 12.4426 1.10175 12.6402 1.25421 12.7876C1.40667 12.935 1.61119 13.0185 1.82708 13.0185H20.1729C20.3888 13.0185 20.5934 12.935 20.7458 12.7876C20.8983 12.6402 20.9847 12.4426 20.9847 12.2338V1.76592C20.9847 1.5572 20.8983 1.3595 20.7458 1.21216C20.5934 1.06477 20.3888 0.981235 20.1729 0.981235Z" fill="#ECE8DF"/>
<path d="M21.8305 3.07333V5.65625H0.168945V2.74618H0.507413H21.492H21.8305V3.07333Z" fill="#ECE8DF"/>
<path d="M3.78955 7.65393C4.03521 7.65393 4.2715 7.69668 4.49089 7.77479C4.51019 7.78165 4.52933 7.78881 4.54833 7.79625C4.46506 7.8578 4.38552 7.92495 4.31041 7.99758C3.8649 8.42822 3.61646 9.00784 3.61646 9.617C3.61646 10.2262 3.8649 10.8057 4.31041 11.2364C4.38552 11.309 4.46506 11.3762 4.54833 11.4378C4.52933 11.4452 4.51019 11.4523 4.49089 11.4592C4.2715 11.5374 4.03521 11.5801 3.78955 11.5801C3.22882 11.5801 2.72109 11.3603 2.3536 11.005C1.98611 10.6498 1.75879 10.1591 1.75879 9.617C1.75879 9.07493 1.98611 8.58416 2.3536 8.22892C2.72111 7.87367 3.22882 7.65393 3.78955 7.65393" fill="#ECE8DF"/>
<path d="M4.5499 8.22892C4.9174 7.87367 5.42511 7.65393 5.98589 7.65393C6.54663 7.65393 7.05432 7.87367 7.42182 8.22892C7.78932 8.58416 8.01664 9.07493 8.01664 9.617C8.01664 10.1591 7.78932 10.6498 7.42182 11.005C7.05432 11.3603 6.54663 11.5801 5.98589 11.5801C5.42511 11.5801 4.9174 11.3603 4.5499 11.005C4.18239 10.6498 3.95508 10.159 3.95508 9.617C3.95508 9.07493 4.18239 8.58416 4.5499 8.22892Z" fill="#ECE8DF"/>
<path fill-rule="evenodd" clip-rule="evenodd" d="M9.87951 9.12589H12.0478C12.3118 9.12589 12.5259 9.34568 12.5259 9.61665C12.5259 9.88764 12.3118 10.1074 12.0478 10.1074H9.87951C9.61549 10.1074 9.40137 9.88764 9.40137 9.61665C9.40137 9.34568 9.61549 9.12589 9.87951 9.12589ZM13.6563 9.12589H15.8247C16.0887 9.12589 16.3028 9.34568 16.3028 9.61665C16.3028 9.88764 16.0887 10.1074 15.8247 10.1074H13.6563C13.3924 10.1074 13.1783 9.88764 13.1783 9.61665C13.1783 9.34568 13.3924 9.12589 13.6563 9.12589ZM17.4332 9.12589H19.6016C19.8656 9.12589 20.0797 9.34568 20.0797 9.61665C20.0797 9.88764 19.8656 10.1074 19.6016 10.1074H17.4332C17.1693 10.1074 16.9552 9.88764 16.9552 9.61665C16.9552 9.34568 17.1693 9.12589 17.4332 9.12589Z" fill="#ECE8DF"/>
</g>
<defs>
<clipPath id="clip0_274_184">
<rect width="22" height="14" fill="white"/>
</clipPath>
</defs>
</svg>
