<?xml version="1.0" encoding="UTF-8"?>
<svg id="Layer_2" data-name="Layer 2" xmlns="http://www.w3.org/2000/svg" viewBox="0 0 9.86 11.81">
  <defs>
    <style>
      .cls-1 {
        fill: #eba182;
      }

      .cls-2 {
        fill: #ece8df;
      }

      .cls-3 {
        fill: #d6ccb9;
      }
    </style>
  </defs>
  <g id="Layer_1-2" data-name="Layer 1">
    <g>
      <path class="cls-1" d="M8.93,3.06c.48,.34,.8,.8,.89,1.37,.18,1.18-.21,2.17-1.05,3-.48,.48-1.07,.77-1.72,.91-.32,.07-.65,.09-.97,.07-.48-.03-.86,.27-.94,.82-.09,.63-.21,1.25-.31,1.88,0,.05-.02,.1-.02,.15-.01,.26-.13,.45-.37,.55h-1.62c-.17-.07-.31-.18-.36-.37-.03-.13,0-.26,.02-.39,.05-.3,.1-.6,.15-.9,.04-.24,.09-.47,.13-.71,.11-.62,.21-1.24,.32-1.86,.04-.22,.05-.45,.13-.66,.13-.24,.34-.34,.61-.34,.53,0,1.07,.03,1.6-.03,.47-.05,.92-.19,1.34-.4,.48-.25,.91-.57,1.26-.99,.36-.44,.63-.92,.79-1.47,.06-.21,.09-.42,.14-.63Z"/>
      <path class="cls-2" d="M3.2,6.92c-.08,.21-.09,.44-.13,.66-.11,.62-.21,1.24-.32,1.86-.04,.24-.08,.47-.13,.71-.03,0-.04,.04-.05,.06-.11,.16-.27,.24-.46,.24-.52,0-1.04,0-1.56,0-.36,0-.6-.29-.54-.65,.15-.91,.3-1.82,.45-2.73,.18-1.07,.36-2.15,.54-3.22,.19-1.12,.37-2.23,.56-3.35C1.63,.16,1.83,0,2.19,0c1.38,0,2.77,0,4.15,0,1.16,0,2.1,.66,2.48,1.75,.15,.41,.16,.84,.1,1.27-.1-.01-.17-.09-.25-.13-.34-.18-.7-.26-1.08-.26-.94,0-1.87,0-2.81,0-.13,0-.26,0-.39,.02-.25,.04-.5,.25-.56,.5-.11,.51-.18,1.02-.27,1.53-.11,.63-.22,1.26-.32,1.89-.02,.11-.07,.22-.03,.34Z"/>
      <path class="cls-3" d="M3.2,6.92c-.04-.12,.02-.23,.03-.34,.1-.63,.21-1.26,.32-1.89,.09-.51,.16-1.02,.27-1.53,.06-.25,.31-.46,.56-.5,.13-.02,.26-.02,.39-.02,.94,0,1.87,0,2.81,0,.38,0,.74,.08,1.08,.26,.08,.04,.15,.12,.25,.13,0,.01,0,.03,0,.04-.05,.21-.08,.42-.14,.63-.16,.54-.43,1.03-.79,1.47-.35,.42-.77,.75-1.26,.99-.42,.21-.87,.35-1.34,.4-.53,.06-1.07,.02-1.6,.03-.27,0-.48,.1-.61,.34Z"/>
    </g>
  </g>
</svg>